# xmcd
#
# Track frame offsets:
#	150
#	15344
#	29755
#	44045
#	59159
#	73954
#	88616
#	103624
#	118079
#	132553
#	147691
#	163752
#
# Disc length: 2368 seconds
#
# Revision: 0
# Processed by: cddbd v1.5.2PL0 Copyright (c) Steve Scherf et al.
# Submitted via: EasyCDDAExtractor 16.0.8.2
#
DISCID=c1093e0c
DTITLE=Συλλογικός δίσκος - Παίξε Χιώτη μπουζουκάκι
DYEAR=2004
DGENRE=Ποικίλη
TTITLE0=Μπίνης Τάκης-Νάχη Ζωή - Δεν πάω σπίτι μου απόψε (Πάιξε Χιώτη..)[ζεϊμπέ
TTITLE0=κικο]
TTITLE1=Νίνου Μαρίκα-Χιώτης Μ.-Βούλγαρης Ν. - Παράξενη κοπέλα [ζεϊμπέκικο]
TTITLE2=Νίνου Μαρίκα-Χιώτης Μανώλης - Ώρες σε κρυφοκοιτάζω [χασαποσέρβικο]
TTITLE3=Ευγενικός Αθανάσιος - Μη χτυπάς σ' αυτό το σπίτι [ζεϊμπέκικο]
TTITLE4=Λαζαρίδου Θέκλα-Χιώτης Μανώλης - Να φύγει η αφιλότιμη [χασάπικο]
TTITLE5=Λαζαρίδου Θέκλα-Χιώτης Μανώλης - Τι το σκέφτεσαι ακόμα [συρτό]
TTITLE6=Νάχη Ζωή-Χιώτης Μανώλης - Τώρα που σ' έχω αγκαλιά [χασάπικο]
TTITLE7=Ευγενικός Αθανάσιος-Χιώτης Μανώλης - Δεν βαριέσαι [ζεϊμπέκικο]
TTITLE8=Νίνου Μαρίκα - Έχασα τα μάτια τα ωραία [βαλς]
TTITLE9=Γιαννιτόπουλος Βαγγέλης-Χιώτης Μ. - Δεν μού γουστάρεις [ζεϊμπέκικο]
TTITLE10=Χασκίλ Στέλλα-Χιώτης Μανώλης - Μαζί σου ξεμυαλίστικα [ζεϊμπέκικο]
TTITLE11=Μαυρίδης Χαράλαμπος - Πιο πέρα από το Ζάνειο [ζεϊμπέκικο]
EXTD=
EXTT0=
EXTT1=
EXTT2=
EXTT3=
EXTT4=
EXTT5=
EXTT6=
EXTT7=
EXTT8=
EXTT9=
EXTT10=
EXTT11=
PLAYORDER=
